
<svg xlink="http://www.w3.org/1999/xlink" viewBox="0 0 5000 5000" xmlns="http://www.w3.org/2000/svg" style="transform: scale(1);"><defs><filter id="goo"><feGaussianBlur in="SourceGraphic" stdDeviation="0" result="blur"></feGaussianBlur><feColorMatrix in="blur" type="matrix" values="1 0 0 0 0 0 1 0 0 0 0 0 1 0 0 0 0 0 19 -9" result="good"></feColorMatrix><feComposite in="SourceGraphic" in2="goo" operator="atop"></feComposite></filter><path d="M238,269C243,259 243,259 234,265C238,247 246,238 264,233C266,235 268,237 269,239L238,269z" id="P0"></path><path d="M265,260L256,267L236,239L263,238L265,260z" id="P1"></path><path d="M278,243Q288,271 259,278L222,259C235,246 239,238 245,222C255,235 261,239 278,243z" id="P2"></path><path d="M251,261L239,251L248,239L259,256L251,261z" id="P3"></path><path d="M236,269C227,262 224,252 228,241L274,247L259,272C252,275 244,274 236,269z" id="P4"></path><path d="M262,254L246,262L244,238L256,238L262,254z" id="P5"></path><path d="M268,272L238,275L252,222C254,236 256,237 266,227Q292,250 268,272z" id="P6"></path><path d="M236,244L249,235L262,260L251,265L236,244z" id="P7"></path><path d="M245,214C261,233 269,244 283,263C263,264 256,268 243,285Q198,263 225,224C230,219 236,216 245,214z" id="P8"></path><path d="M259,236L259,264L236,242L253,234L259,236z" id="P9"></path></defs><rect id="RECT" width="5000" height="5000" fill="#111"></rect><g id="group" fill="#FFF" filter=""><use x="-98" y="5" href="#P9"></use><use x="94" y="318" href="#P9"></use><use x="-217" y="709" href="#P0"></use><use x="-141" y="966" href="#P9"></use><use x="47" y="1128" href="#P8"></use><use x="-62" y="1396" href="#P2"></use><use x="-174" y="1774" href="#P3"></use><use x="-72" y="2096" href="#P0"></use><use x="-20" y="2519" href="#P4"></use><use x="37" y="2938" href="#P7"></use><use x="-203" y="3297" href="#P6"></use><use x="-83" y="3365" href="#P1"></use><use x="-30" y="3832" href="#P7"></use><use x="-108" y="4237" href="#P4"></use><use x="-8" y="4566" href="#P0"></use><use x="-44" y="4844" href="#P4"></use><use x="-202" y="5285" href="#P7"></use><use x="406" y="-121" href="#P9"></use><use x="226" y="363" href="#P6"></use><use x="406" y="657" href="#P7"></use><use x="245" y="960" href="#P0"></use><use x="216" y="1056" href="#P4"></use><use x="259" y="1568" href="#P4"></use><use x="372" y="2002" href="#P0"></use><use x="297" y="2248" href="#P4"></use><use x="116" y="2379" href="#P7"></use><use x="139" y="2692" href="#P8"></use><use x="297" y="3128" href="#P6"></use><use x="237" y="3504" href="#P5"></use><use x="250" y="3818" href="#P0"></use><use x="274" y="4268" href="#P5"></use><use x="336" y="4568" href="#P3"></use><use x="163" y="4785" href="#P0"></use><use x="109" y="5103" href="#P8"></use><use x="501" y="10" href="#P5"></use><use x="449" y="202" href="#P8"></use><use x="510" y="678" href="#P1"></use><use x="662" y="751" href="#P9"></use><use x="448" y="1266" href="#P9"></use><use x="577" y="1607" href="#P9"></use><use x="597" y="2002" href="#P5"></use><use x="647" y="2333" href="#P5"></use><use x="582" y="2599" href="#P6"></use><use x="628" y="2816" href="#P0"></use><use x="502" y="3260" href="#P8"></use><use x="637" y="3447" href="#P6"></use><use x="504" y="3728" href="#P4"></use><use x="661" y="4174" href="#P6"></use><use x="677" y="4405" href="#P7"></use><use x="493" y="4821" href="#P5"></use><use x="662" y="5200" href="#P2"></use><use x="953" y="49" href="#P7"></use><use x="1080" y="279" href="#P5"></use><use x="1097" y="692" href="#P7"></use><use x="851" y="741" href="#P8"></use><use x="871" y="1099" href="#P1"></use><use x="945" y="1516" href="#P0"></use><use x="831" y="1945" href="#P6"></use><use x="1104" y="2297" href="#P3"></use><use x="783" y="2672" href="#P5"></use><use x="1062" y="2865" href="#P7"></use><use x="884" y="3313" href="#P3"></use><use x="1054" y="3607" href="#P0"></use><use x="969" y="3776" href="#P2"></use><use x="791" y="4025" href="#P9"></use><use x="823" y="4516" href="#P2"></use><use x="939" y="4656" href="#P9"></use><use x="1092" y="5109" href="#P8"></use><use x="1130" y="67" href="#P9"></use><use x="1415" y="82" href="#P7"></use><use x="1447" y="602" href="#P7"></use><use x="1277" y="993" href="#P9"></use><use x="1274" y="1327" href="#P6"></use><use x="1443" y="1460" href="#P0"></use><use x="1152" y="1966" href="#P5"></use><use x="1212" y="2257" href="#P2"></use><use x="1407" y="2659" href="#P0"></use><use x="1192" y="2804" href="#P0"></use><use x="1416" y="3087" href="#P5"></use><use x="1140" y="3457" href="#P0"></use><use x="1258" y="3814" href="#P0"></use><use x="1282" y="4041" href="#P4"></use><use x="1279" y="4409" href="#P1"></use><use x="1169" y="4710" href="#P1"></use><use x="1468" y="4986" href="#P0"></use><use x="1636" y="-56" href="#P9"></use><use x="1624" y="228" href="#P0"></use><use x="1651" y="473" href="#P1"></use><use x="1600" y="897" href="#P2"></use><use x="1595" y="1058" href="#P1"></use><use x="1810" y="1563" href="#P5"></use><use x="1636" y="1773" href="#P8"></use><use x="1603" y="2259" href="#P9"></use><use x="1638" y="2371" href="#P2"></use><use x="1781" y="2885" href="#P0"></use><use x="1751" y="3018" href="#P6"></use><use x="1689" y="3573" href="#P2"></use><use x="1570" y="3690" href="#P3"></use><use x="1773" y="4188" href="#P2"></use><use x="1550" y="4505" href="#P7"></use><use x="1610" y="4674" href="#P0"></use><use x="1560" y="5117" href="#P9"></use><use x="2076" y="-77" href="#P3"></use><use x="1865" y="99" href="#P7"></use><use x="2048" y="672" href="#P3"></use><use x="2113" y="800" href="#P8"></use><use x="2145" y="1322" href="#P6"></use><use x="1866" y="1568" href="#P3"></use><use x="2013" y="1854" href="#P8"></use><use x="1821" y="2356" href="#P1"></use><use x="2073" y="2637" href="#P1"></use><use x="1945" y="2731" href="#P5"></use><use x="1894" y="3200" href="#P1"></use><use x="1821" y="3510" href="#P3"></use><use x="1864" y="3873" href="#P1"></use><use x="2072" y="4203" href="#P1"></use><use x="2098" y="4596" href="#P2"></use><use x="1982" y="4790" href="#P2"></use><use x="1841" y="5295" href="#P5"></use><use x="2345" y="68" href="#P4"></use><use x="2310" y="108" href="#P3"></use><use x="2453" y="658" href="#P3"></use><use x="2224" y="983" href="#P1"></use><use x="2462" y="1254" href="#P0"></use><use x="2259" y="1546" href="#P6"></use><use x="2361" y="2022" href="#P2"></use><use x="2498" y="2285" href="#P4"></use><use x="2500" y="2583" href="#P0"></use><use x="2304" y="2836" href="#P5"></use><use x="2351" y="3266" href="#P1"></use><use x="2359" y="3456" href="#P6"></use><use x="2280" y="3837" href="#P8"></use><use x="2322" y="4284" href="#P1"></use><use x="2355" y="4390" href="#P0"></use><use x="2433" y="4726" href="#P8"></use><use x="2409" y="5042" href="#P2"></use><use x="2611" y="25" href="#P4"></use><use x="2727" y="195" href="#P7"></use><use x="2515" y="405" href="#P5"></use><use x="2742" y="857" href="#P9"></use><use x="2649" y="1170" href="#P2"></use><use x="2592" y="1629" href="#P9"></use><use x="2775" y="2015" href="#P5"></use><use x="2696" y="2278" href="#P8"></use><use x="2700" y="2366" href="#P0"></use><use x="2571" y="2913" href="#P6"></use><use x="2604" y="3169" href="#P0"></use><use x="2513" y="3449" href="#P8"></use><use x="2689" y="3798" href="#P2"></use><use x="2515" y="4215" href="#P8"></use><use x="2785" y="4353" href="#P3"></use><use x="2816" y="4654" href="#P7"></use><use x="2824" y="5210" href="#P1"></use><use x="3146" y="-93" href="#P2"></use><use x="3153" y="315" href="#P6"></use><use x="2964" y="408" href="#P8"></use><use x="3033" y="919" href="#P2"></use><use x="3060" y="1313" href="#P6"></use><use x="3136" y="1528" href="#P5"></use><use x="3156" y="1922" href="#P9"></use><use x="3070" y="2328" href="#P7"></use><use x="2881" y="2450" href="#P2"></use><use x="2945" y="2936" href="#P1"></use><use x="2931" y="3312" href="#P7"></use><use x="2983" y="3381" href="#P3"></use><use x="3032" y="3933" href="#P2"></use><use x="3081" y="4260" href="#P7"></use><use x="2978" y="4354" href="#P0"></use><use x="2901" y="4712" href="#P8"></use><use x="3136" y="5127" href="#P1"></use><use x="3429" y="44" href="#P2"></use><use x="3277" y="168" href="#P1"></use><use x="3472" y="692" href="#P5"></use><use x="3265" y="1006" href="#P9"></use><use x="3207" y="1257" href="#P0"></use><use x="3338" y="1633" href="#P6"></use><use x="3514" y="1850" href="#P7"></use><use x="3526" y="2084" href="#P3"></use><use x="3225" y="2426" href="#P3"></use><use x="3190" y="2769" href="#P4"></use><use x="3428" y="3058" href="#P0"></use><use x="3486" y="3401" href="#P7"></use><use x="3502" y="3846" href="#P9"></use><use x="3200" y="4226" href="#P4"></use><use x="3231" y="4528" href="#P8"></use><use x="3201" y="4955" href="#P1"></use><use x="3239" y="5095" href="#P3"></use><use x="3797" y="-94" href="#P9"></use><use x="3711" y="90" href="#P3"></use><use x="3606" y="460" href="#P8"></use><use x="3565" y="971" href="#P9"></use><use x="3794" y="1350" href="#P7"></use><use x="3831" y="1639" href="#P0"></use><use x="3825" y="1966" href="#P6"></use><use x="3855" y="2167" href="#P3"></use><use x="3685" y="2554" href="#P4"></use><use x="3808" y="2704" href="#P1"></use><use x="3797" y="3131" href="#P1"></use><use x="3810" y="3378" href="#P2"></use><use x="3595" y="3675" href="#P4"></use><use x="3789" y="3993" href="#P5"></use><use x="3808" y="4632" href="#P9"></use><use x="3844" y="4703" href="#P2"></use><use x="3533" y="5165" href="#P6"></use><use x="4149" y="-194" href="#P3"></use><use x="4179" y="348" href="#P6"></use><use x="3995" y="637" href="#P7"></use><use x="3969" y="1006" href="#P0"></use><use x="3990" y="1215" href="#P8"></use><use x="4045" y="1601" href="#P8"></use><use x="3876" y="1725" href="#P1"></use><use x="4115" y="2109" href="#P5"></use><use x="3901" y="2430" href="#P3"></use><use x="4120" y="2881" href="#P0"></use><use x="4023" y="3038" href="#P7"></use><use x="3884" y="3434" href="#P2"></use><use x="4113" y="3799" href="#P0"></use><use x="4193" y="4199" href="#P7"></use><use x="4016" y="4587" href="#P4"></use><use x="3962" y="4969" href="#P8"></use><use x="3990" y="5221" href="#P5"></use><use x="4258" y="-241" href="#P8"></use><use x="4523" y="390" href="#P7"></use><use x="4446" y="539" href="#P3"></use><use x="4385" y="897" href="#P5"></use><use x="4473" y="1228" href="#P3"></use><use x="4371" y="1666" href="#P7"></use><use x="4501" y="1990" href="#P3"></use><use x="4492" y="2054" href="#P0"></use><use x="4294" y="2627" href="#P2"></use><use x="4409" y="2822" href="#P0"></use><use x="4354" y="3053" href="#P7"></use><use x="4434" y="3608" href="#P8"></use><use x="4329" y="3708" href="#P2"></use><use x="4350" y="4031" href="#P1"></use><use x="4290" y="4320" href="#P1"></use><use x="4270" y="4882" href="#P2"></use><use x="4368" y="5081" href="#P2"></use><use x="4611" y="-147" href="#P6"></use><use x="4753" y="339" href="#P0"></use><use x="4846" y="629" href="#P4"></use><use x="4662" y="1029" href="#P9"></use><use x="4694" y="1077" href="#P9"></use><use x="4679" y="1461" href="#P8"></use><use x="4692" y="1806" href="#P3"></use><use x="4791" y="2304" href="#P9"></use><use x="4589" y="2396" href="#P4"></use><use x="4616" y="2843" href="#P2"></use><use x="4845" y="3111" href="#P4"></use><use x="4834" y="3645" href="#P9"></use><use x="4769" y="3946" href="#P0"></use><use x="4577" y="4314" href="#P5"></use><use x="4824" y="4402" href="#P0"></use><use x="4855" y="4825" href="#P4"></use><use x="4760" y="5038" href="#P6"></use><use x="5151" y="-53" href="#P4"></use><use x="5228" y="226" href="#P8"></use><use x="5071" y="694" href="#P8"></use><use x="5070" y="740" href="#P8"></use><use x="4964" y="1212" href="#P0"></use><use x="4916" y="1685" href="#P3"></use><use x="5006" y="1950" href="#P5"></use><use x="5068" y="2115" href="#P5"></use><use x="4960" y="2570" href="#P0"></use><use x="4964" y="2735" href="#P8"></use><use x="5208" y="3115" href="#P7"></use><use x="4981" y="3431" href="#P0"></use><use x="5157" y="3740" href="#P9"></use><use x="5104" y="4292" href="#P1"></use><use x="5170" y="4403" href="#P3"></use><use x="5116" y="4827" href="#P4"></use><use x="4988" y="5226" href="#P1"></use></g></svg>
