
<svg xlink="http://www.w3.org/1999/xlink" viewBox="0 0 5000 5000" xmlns="http://www.w3.org/2000/svg" style="transform: scale(1);"><defs><filter id="goo"><feGaussianBlur in="SourceGraphic" stdDeviation="0" result="blur"></feGaussianBlur><feColorMatrix in="blur" type="matrix" values="1 0 0 0 0 0 1 0 0 0 0 0 1 0 0 0 0 0 19 -9" result="good"></feColorMatrix><feComposite in="SourceGraphic" in2="goo" operator="atop"></feComposite></filter><path d="M322,245C322,278 303,306 277,317C245,327 213,318 195,296C175,269 174,236 189,211C209,185 240,174 268,180C299,191 320,217 322,245z" id="P0"></path><path d="M187,285C173,255 178,222 198,201C222,178 255,173 281,185C309,201 325,231 321,259C315,291 291,315 263,321C231,325 201,309 187,285z" id="P1"></path><path d="M197,240C203,216 222,199 243,196C268,195 290,208 299,227C308,250 302,275 287,289C268,305 243,307 224,297C203,284 193,261 197,240z" id="P2"></path></defs><rect id="RECT" width="5000" height="5000" fill="#111"></rect><g id="group" fill="#FFF" filter=""><use x="933" y="382" href="#P2"></use><use x="983" y="1894" href="#P1"></use><use x="-164" y="3995" href="#P0"></use><use x="-68" y="5514" href="#P1"></use><use x="2184" y="485" href="#P2"></use><use x="2174" y="1694" href="#P1"></use><use x="3309" y="3407" href="#P1"></use><use x="2559" y="4293" href="#P2"></use><use x="4540" y="523" href="#P1"></use><use x="4047" y="1348" href="#P0"></use><use x="4697" y="3440" href="#P2"></use><use x="5156" y="5281" href="#P1"></use></g></svg>
